<?xml version="1.0" encoding="utf-8"?>
<!-- Generator: Adobe Illustrator 15.1.0, SVG Export Plug-In . SVG Version: 6.00 Build 0)  -->
<!DOCTYPE svg PUBLIC "-//W3C//DTD SVG 1.1//EN" "http://www.w3.org/Graphics/SVG/1.1/DTD/svg11.dtd">
<svg version="1.1" id="Layer_1" xmlns="http://www.w3.org/2000/svg" xmlns:xlink="http://www.w3.org/1999/xlink" x="0px" y="0px"
	 width="257.383px" height="151.56px" viewBox="0 0 257.383 151.56" enable-background="new 0 0 257.383 151.56"
	 xml:space="preserve">
<g>
	<path fill="#FFFFFF" d="M64.232,151.56c-27.838,0-50.405-20.473-50.405-45.727c0-8.537,2.662-16.737,6.708-24.187
		c2.074-3.821,4.621-7.337,7.156-10.859c2.424-3.37,4.979-6.894,6.961-10.63c2.134-4.023,2.823-8.387,3.691-12.811
		c0.747-3.803,3.027-7.733,5.456-10.726c4.313-5.315,10.47-9.089,17.311-9.954c1.035-0.131,2.078-0.195,3.122-0.195h-0.001
		c1.043,0,2.087,0.064,3.122,0.195c6.841,0.865,12.997,4.639,17.311,9.954c2.429,2.992,4.709,6.923,5.456,10.726
		c0.868,4.424,1.557,8.787,3.691,12.811c1.982,3.736,4.537,7.26,6.961,10.63c2.535,3.522,5.081,7.038,7.156,10.859
		c4.046,7.449,6.708,15.649,6.708,24.187C114.637,131.087,92.069,151.56,64.232,151.56L64.232,151.56z"/>
	<path fill="#FFFFFF" d="M63.934,35.8c-0.282,0-0.564-0.034-0.84-0.104c-0.908-0.223-1.675-0.787-2.158-1.587
		c-0.483-0.801-0.627-1.741-0.402-2.649l4.899-19.869l9.16,4.041l4.729-10.276l6.359,2.925l-7.607,16.539l-7.84-3.459l-2.904,11.776
		C66.943,34.704,65.546,35.8,63.934,35.8"/>
	<path fill="rgba(36, 200, 183, 1)" d="M79.812,6.682l4.543,2.09l-6.778,14.735l-8.028-3.541l-3.188,12.932c-0.281,1.139-1.303,1.902-2.425,1.902
		c-0.199,0-0.4-0.023-0.602-0.073c-1.341-0.331-2.16-1.687-1.829-3.026l4.614-18.713l8.972,3.958L79.812,6.682 M78.83,4.028
		l-0.836,1.817l-3.898,8.475l-7.17-3.163l-2.18-0.961l-0.569,2.313l-4.614,18.712c-0.595,2.409,0.882,4.853,3.292,5.448
		c0.354,0.086,0.717,0.131,1.08,0.131c2.073,0,3.869-1.408,4.366-3.424l2.619-10.619l5.849,2.58l1.802,0.795l0.823-1.789
		l6.778-14.735l0.835-1.817L85.19,6.954l-4.543-2.09L78.83,4.028z"/>
	<path fill="#FFFFFF" d="M40.178,8.626c-0.134,0.01-0.265,0.021-0.396,0.033c-6.046,0.551-11.921,2.217-17.613,4.274
		c-4.064,1.468-7.993,3.365-12.204,4.399C8.515,17.688,1.268,19.671,0,18.477c12.638,11.913,34.854,20.388,50.259,8.593
		c2.652-2.031,9.776-9.766,6.907-13.593C53.771,8.948,45.333,8.228,40.178,8.626"/>
	<path fill="rgba(36, 200, 183, 1)" d="M87.96,87.544l-7.46,8.838c-3.333-4.06-8.263-6.596-12.752-6.596c-8.045,0-14.13,6.378-14.13,14.708
		c0,8.478,6.085,14.926,14.13,14.926c4.274,0,9.2-2.318,12.752-5.94l7.534,7.97c-5.434,5.581-13.479,9.275-20.941,9.275
		c-15.286,0-26.66-11.228-26.66-26.083c0-14.637,11.663-25.652,27.097-25.652C75.064,78.989,82.89,82.322,87.96,87.544"/>
	<polygon fill="#FFFFFF" points="86.747,11.173 76.859,5.953 86.323,0 	"/>
	<g>
		<line fill="#FFFFFF" x1="54.791" y1="15.435" x2="66.041" y2="22.685"/>
		
			<rect x="53.724" y="16.559" transform="matrix(0.8406 0.5417 -0.5417 0.8406 19.9567 -29.6888)" fill="#FFFFFF" width="13.384" height="5"/>
	</g>
</g>
<g>
	<path fill="#FFFFFF" d="M145.535,94.972c7.34,0,11.563,3.608,11.563,10.004c0,6.725-4.223,10.619-11.563,10.619h-5.207v8.077
		h-7.297v-28.7H145.535z M140.328,109.854h4.839c3.198,0,5.043-1.599,5.043-4.633c0-2.993-1.845-4.51-5.043-4.51h-4.839V109.854z"/>
	<path fill="#FFFFFF" d="M171.529,118.383l-2.092,5.289h-7.502l12.382-28.7h7.503l12.095,28.7h-7.789l-2.051-5.289H171.529z
		 M177.842,102.229l-4.182,10.619h8.282L177.842,102.229z"/>
	<path fill="#FFFFFF" d="M213.717,115.595h-0.205h-5.535v8.077h-7.297v-28.7h12.832c7.586,0,11.932,3.608,11.932,10.004
		c0,4.387-1.846,7.544-5.207,9.226l6.027,9.471h-8.283L213.717,115.595z M213.512,109.854c3.158,0,5.002-1.599,5.002-4.633
		c0-2.993-1.844-4.51-5.002-4.51h-5.535v9.143H213.512z"/>
	<path fill="#FFFFFF" d="M241.762,100.712v5.699h13.693v5.739h-13.693v5.781h15.621v5.74h-22.92v-28.7h22.469v5.74H241.762z"/>
</g>
</svg>
